<svg width="14" height="4" viewBox="0 0 14 4" fill="none" xmlns="http://www.w3.org/2000/svg">
<path d="M2.31889 3.66477C2.03243 3.66477 1.77083 3.59493 1.53409 3.45526C1.29735 3.31321 1.10795 3.12382 0.965909 2.88707C0.826231 2.65033 0.756392 2.38873 0.756392 2.10227C0.756392 1.81345 0.826231 1.55185 0.965909 1.31747C1.10795 1.08073 1.29735 0.892519 1.53409 0.752841C1.77083 0.610795 2.03243 0.539773 2.31889 0.539773C2.60772 0.539773 2.86932 0.610795 3.10369 0.752841C3.34044 0.892519 3.52865 1.08073 3.66832 1.31747C3.81037 1.55185 3.88139 1.81345 3.88139 2.10227C3.88139 2.38873 3.81037 2.65033 3.66832 2.88707C3.52865 3.12382 3.34044 3.31321 3.10369 3.45526C2.86932 3.59493 2.60772 3.66477 2.31889 3.66477ZM6.95756 3.66477C6.67111 3.66477 6.40951 3.59493 6.17276 3.45526C5.93602 3.31321 5.74663 3.12382 5.60458 2.88707C5.4649 2.65033 5.39506 2.38873 5.39506 2.10227C5.39506 1.81345 5.4649 1.55185 5.60458 1.31747C5.74663 1.08073 5.93602 0.892519 6.17276 0.752841C6.40951 0.610795 6.67111 0.539773 6.95756 0.539773C7.24639 0.539773 7.50799 0.610795 7.74237 0.752841C7.97911 0.892519 8.16732 1.08073 8.307 1.31747C8.44904 1.55185 8.52006 1.81345 8.52006 2.10227C8.52006 2.38873 8.44904 2.65033 8.307 2.88707C8.16732 3.12382 7.97911 3.31321 7.74237 3.45526C7.50799 3.59493 7.24639 3.66477 6.95756 3.66477ZM11.5962 3.66477C11.3098 3.66477 11.0482 3.59493 10.8114 3.45526C10.5747 3.31321 10.3853 3.12382 10.2433 2.88707C10.1036 2.65033 10.0337 2.38873 10.0337 2.10227C10.0337 1.81345 10.1036 1.55185 10.2433 1.31747C10.3853 1.08073 10.5747 0.892519 10.8114 0.752841C11.0482 0.610795 11.3098 0.539773 11.5962 0.539773C11.8851 0.539773 12.1467 0.610795 12.381 0.752841C12.6178 0.892519 12.806 1.08073 12.9457 1.31747C13.0877 1.55185 13.1587 1.81345 13.1587 2.10227C13.1587 2.38873 13.0877 2.65033 12.9457 2.88707C12.806 3.12382 12.6178 3.31321 12.381 3.45526C12.1467 3.59493 11.8851 3.66477 11.5962 3.66477Z" fill="#B1B1B1"/>
</svg>
